Coordinates
version=1
nRows=5
nColumns=42
inDegrees=yes

Units are S.I. units (second, meters, Newtons, ...)
If the header above contains a line with 'inDegrees', this indicates whether rotational values are in degrees (yes) or radians (no).

endheader
time	pelvis_tilt	pelvis_list	pelvis_rotation	pelvis_tx	pelvis_ty	pelvis_tz	hip_flexion_r	hip_adduction_r	hip_rotation_r	knee_angle_r	knee_adduction_r	knee_angle_r_beta	ankle_angle_r	subtalar_angle_r	mtp_angle_r	hip_flexion_l	hip_adduction_l	hip_rotation_l	knee_angle_l	knee_adduction_l	knee_angle_l_beta	ankle_angle_l	subtalar_angle_l	mtp_angle_l	lumbar_extension	lumbar_bending	lumbar_rotation	arm_flex_r	arm_add_r	arm_rot_r	elbow_flex_r	pro_sup_r	wrist_flex_r	wrist_dev_r	arm_flex_l	arm_add_l	arm_rot_l	elbow_flex_l	pro_sup_l	wrist_flex_l	wrist_dev_l
      0.88000000	     13.58318984	     -1.29754588	      6.00222188	     -1.48364473	      0.89744435	      0.15061584	     -8.14171918	      2.13932919	    -26.61524995	     17.46948488	      2.33371370	      0.30490003	     19.15740218	     35.65144781	     -7.69463433	     -5.42110954	     -3.81616822	    -15.13559941	     52.76957561	    -14.19753236	      0.92100284	     21.08284455	     19.71252109	     -7.69463433	    -36.98290636	      6.00451228	     -0.06086330	      1.35140002	    -15.90934732	      6.67764369	     48.68012497	     90.00000001	      0.00000000	      0.00000000	     15.08063923	    -14.13273599	      9.38873311	     45.18059544	     90.00000001	      0.00000000	      0.00000000
      0.89000000	     13.50725010	     -1.04544620	      5.90318205	     -1.47159051	      0.89798269	      0.15135402	     -9.23751928	      2.05233143	    -26.17811398	     16.90458583	      2.56572098	      0.29504068	     19.57231792	     35.27307347	     -7.69184393	     -3.46805750	     -3.45802381	    -15.26388495	     52.65241294	    -14.03161342	      0.91895796	     21.73961145	     19.01445918	     -7.69184393	    -37.06503783	      5.60572497	      0.15903461	      1.72229244	    -16.22133364	      6.73788624	     49.08755233	     90.00000001	      0.00000000	      0.00000000	     14.46231179	    -14.14654712	      9.32170183	     44.97131675	     90.00000001	      0.00000000	      0.00000000
      0.90000000	     13.71152265	     -0.91580725	      5.75490883	     -1.45927378	      0.89871733	      0.15186556	    -10.83149675	      2.17291992	    -24.91403322	     15.85878980	      2.96092726	      0.27678810	     19.99532403	     34.98060893	     -7.68482962	     -2.01357252	     -3.13818744	    -15.17920605	     52.08773039	    -13.73334381	      0.90910240	     22.51470737	     17.60206211	     -7.68482962	    -37.40567967	      5.37324069	      0.46866040	      2.12983965	    -16.80517916	      7.23246380	     49.69327256	     90.00000001	      0.00000000	      0.00000000	     13.78753617	    -14.02867347	      8.98368087	     44.83515086	     90.00000001	      0.00000000	      0.00000000
      0.91000000	     13.74808188	     -0.80428501	      5.52694957	     -1.44701168	      0.89890194	      0.15259788	    -12.11853331	      2.23319539	    -23.91904831	     15.08627815	      3.29336778	      0.26330523	     20.47989746	     34.49070845	     -7.67988267	     -0.38179048	     -2.88158909	    -15.44779731	     51.34169855	    -13.52428455	      0.89608168	     23.12090151	     16.81449726	     -7.67988267	    -37.55875161	      5.08383891	      0.86423182	      2.51725934	    -17.22926773	      7.36243478	     50.11042033	     90.00000001	      0.00000000	      0.00000000	     13.07534993	    -13.97947017	      8.81424902	     44.70589120	     90.00000001	      0.00000000	      0.00000000
      0.92000000	     13.94127192	     -0.68959862	      5.21078836	     -1.43449888	      0.89913581	      0.15334400	    -13.71086677	      2.33212471	    -22.46100742	     14.00538561	      3.66475388	      0.24444009	     20.67860669	     33.57516469	     -7.67167910	      0.90481959	     -2.62388268	    -15.85636924	     50.15958128	    -13.30441470	      0.87544984	     23.48057961	     16.17632707	     -7.67167910	    -37.85263395	      4.75915624	      1.32017351	      2.89468359	    -17.74379963	      7.65182417	     50.61067001	     90.00000001	      0.00000000	      0.00000000	     12.31260210	    -13.87662431	      8.46791083	     44.66054247	     90.00000001	      0.00000000	      0.00000000
